#!OML:ASF G:\JayActor3\Patient Classification 1\Patient 1\Session 5\male.ASF
:FULLY-SPECIFIED
:DEGREES
908
root 44.9964 16.2251 -4.94722 1019.56 83.5295 1020
lowerback -1.32302 0.222205 6.08036
upperback 1.76716 0.161637 -0.467647
thorax 2.58844 0.207054 -3.88908
lowerneck -8.75309 0.0955398 1.48452
upperneck 13.6192 -0.321703 2.33425
head 5.55263 0.129721 0.468135
rclavicle 1.16786e-015 -2.38542e-015
rhumerus -33.4553 -3.64651 -88.8455
rradius 29.1021
rwrist 1.3974
rhand -18.7405 -6.20547
rfingers 7.12502
rthumb 7.55566 -36.0505
lclavicle 1.16786e-015 -2.38542e-015
lhumerus -34.065 12.2024 79.025
lradius 19.8419
lwrist 12.5172
lhand -17.2806 11.4753
lfingers 7.12502
lthumb 8.96456 41.2649
rfemur 10.919 -2.19002 28.6761
rtibia 36.1892
rfoot -8.27806 -9.81025
rtoes -6.01507
lfemur -19.6408 13.8698 -19.7603
ltibia 22.1065
lfoot -8.38738 2.31205
ltoes -10.6429
909
root 45.131 16.2336 -4.96475 1020.4 83.6042 1020.89
lowerback -1.33489 0.218966 5.93959
upperback 1.73149 0.160947 -0.485105
thorax 2.55704 0.202112 -3.82798
lowerneck -8.83798 0.0907227 1.46514
upperneck 13.8621 -0.321957 2.28082
head 5.64295 0.130137 0.455528
rclavicle -2.55935e-015 1.59028e-015
rhumerus -33.6106 -3.55038 -88.7972
rradius 29.2114
rwrist 1.19951
rhand -18.6237 -6.27175
rfingers 7.12502
rthumb 7.6684 -36.1127
lclavicle -2.55935e-015 1.59028e-015
lhumerus -34.0911 12.2654 79.0001
lradius 19.8376
lwrist 12.5334
lhand -17.2116 11.5183
lfingers 7.12502
lthumb 9.0312 41.305
rfemur 10.1021 -2.51665 28.2099
rtibia 38.1566
rfoot -6.87216 -10.0903
rtoes -4.38309
lfemur -19.2046 14.2582 -19.9104
ltibia 22.259
lfoot -8.38061 1.78164
ltoes -9.78465
910
root 45.2638 16.2421 -4.98181 1021.31 83.674 1021.84
lowerback -1.34269 0.216934 5.78516
upperback 1.70742 0.162117 -0.495079
thorax 2.53547 0.198466 -3.75133
lowerneck -8.91788 0.0851725 1.43534
upperneck 14.0688 -0.322822 2.23968
head 5.72125 0.129692 0.448288
rclavicle -4.05024e-015 -9.54166e-015
rhumerus -33.7354 -3.44036 -88.7465
rradius 29.3348
rwrist 1.00825
rhand -18.5378 -6.33786
rfingers 7.12502
rthumb 7.75124 -36.1758
lclavicle -4.05024e-015 -9.54166e-015
lhumerus -34.0936 12.2812 79.0223
lradius 19.8851
lwrist 12.6089
lhand -17.1585 11.5444
lfingers 7.12502
lthumb 9.08241 41.3288
rfemur 9.23091 -2.78251 27.7722
rtibia 40.1731
rfoot -5.44419 -10.4872
rtoes -2.64423
lfemur -18.7412 14.5383 -20.0405
ltibia 22.3784
lfoot -8.41137 1.42208
ltoes -8.95771
911
root 45.3945 16.2505 -4.99847 1022.29 83.7458 1022.87
lowerback -1.33911 0.212999 5.61265
upperback 1.69639 0.161631 -0.501975
thorax 2.52068 0.194235 -3.66137
lowerneck -8.99141 0.0858785 1.41303
upperneck 14.2354 -0.315285 2.19558
head 5.78592 0.132502 0.439344
rclavicle -3.80176e-015 8.74653e-015
rhumerus -33.8228 -3.32066 -88.6962
rradius 29.4598
rwrist 0.839567
rhand -18.5058 -6.37446
rfingers 7.12502
rthumb 7.78212 -36.2112
lclavicle -3.80176e-015 8.74653e-015
lhumerus -34.0749 12.2419 79.0891
lradius 19.9922
lwrist 12.7502
lhand -17.1246 11.5594
lfingers 7.12502
lthumb 9.1151 41.3424
rfemur 8.3072 -2.98451 27.3597
rtibia 42.229
rfoot -4.0062 -11.0043
rtoes -0.632579
lfemur -18.2359 14.6904 -20.1576
ltibia 22.4475
lfoot -8.47831 1.22928
ltoes -8.16835
912
root 45.5227 16.2585 -5.01466 1023.37 83.8317 1024.02
lowerback -1.31303 0.206973 5.41283
upperback 1.69136 0.160333 -0.511196
thorax 2.49918 0.189131 -3.5585
lowerneck -9.04341 0.0868128 1.38527
upperneck 14.3537 -0.307538 2.16481
head 5.83187 0.134978 0.435302
rclavicle -8.44835e-016 -1.19271e-014
rhumerus -33.8844 -3.21463 -88.6408
rradius 29.5824
rwrist 0.712665
rhand -18.5263 -6.37975
rfingers 7.12502
rthumb 7.76237 -36.2173
lclavicle -8.44835e-016 -1.19271e-014
lhumerus -34.0381 12.1484 79.1936
lradius 20.146
lwrist 12.9425
lhand -17.1174 11.5707
lfingers 7.12502
lthumb 9.12203 41.3534
rfemur 7.33258 -3.11755 26.9659
rtibia 44.3134
rfoot -2.56291 -11.6492
rtoes 1.68265
lfemur -17.6891 14.7311 -20.2802
ltibia 22.4584
lfoot -8.57209 1.16165
ltoes -7.39696
913
root 45.6483 16.2657 -5.03041 1024.64 83.9539 1025.36
lowerback -1.25706 0.195786 5.16454
upperback 1.68925 0.155083 -0.529867
thorax 2.46321 0.180992 -3.43831
lowerneck -9.07332 0.0911985 1.3626
upperneck 14.4345 -0.295167 2.13586
head 5.86223 0.139235 0.43118
rclavicle -9.56651e-015 1.27222e-014
rhumerus -33.9208 -3.1312 -88.5785
rradius 29.6882
rwrist 0.642821
rhand -18.5986 -6.35712
rfingers 7.12502
rthumb 7.69257 -36.1972
lclavicle -9.56651e-015 1.27222e-014
lhumerus -33.9915 12.0043 79.3288
lradius 20.3457
lwrist 13.1736
lhand -17.1347 11.5822
lfingers 7.12502
lthumb 9.10541 41.3656
rfemur 6.31452 -3.19713 26.5603
rtibia 46.415
rfoot -1.0758 -12.4002
rtoes 4.25445
lfemur -17.0997 14.7153 -20.4409
ltibia 22.4068
lfoot -8.68018 1.14377
ltoes -6.62244
